solid exported
	facet normal 1 0 0
		outer loop
			vertex 25 50 25
			vertex 25 0 25
			vertex 25 50 -25
		endloop
	endfacet
	facet normal 1 0 0
		outer loop
			vertex 25 0 25
			vertex 25 0 -25
			vertex 25 50 -25
		endloop
	endfacet
	facet normal -1 0 0
		outer loop
			vertex -25 50 -25
			vertex -25 0 -25
			vertex -25 50 25
		endloop
	endfacet
	facet normal -1 0 0
		outer loop
			vertex -25 0 -25
			vertex -25 0 25
			vertex -25 50 25
		endloop
	endfacet
	facet normal 0 1 0
		outer loop
			vertex -25 50 -25
			vertex -25 50 25
			vertex 25 50 -25
		endloop
	endfacet
	facet normal 0 1 0
		outer loop
			vertex -25 50 25
			vertex 25 50 25
			vertex 25 50 -25
		endloop
	endfacet
	facet normal 0 -1 0
		outer loop
			vertex -25 0 25
			vertex -25 0 -25
			vertex 25 0 25
		endloop
	endfacet
	facet normal 0 -1 0
		outer loop
			vertex -25 0 -25
			vertex 25 0 -25
			vertex 25 0 25
		endloop
	endfacet
	facet normal 0 0 1
		outer loop
			vertex -25 50 25
			vertex -25 0 25
			vertex 25 50 25
		endloop
	endfacet
	facet normal 0 0 1
		outer loop
			vertex -25 0 25
			vertex 25 0 25
			vertex 25 50 25
		endloop
	endfacet
	facet normal 0 0 -1
		outer loop
			vertex 25 50 -25
			vertex 25 0 -25
			vertex -25 50 -25
		endloop
	endfacet
	facet normal 0 0 -1
		outer loop
			vertex 25 0 -25
			vertex -25 0 -25
			vertex -25 50 -25
		endloop
	endfacet
endsolid exported
